<svg id="Layer_1" color="white" data-name="Layer 1" xmlns="http://www.w3.org/2000/svg" viewBox="0 0 384.01 351.63"><title>Artboard 2</title><path d="M384,140.78v18.75a22.31,22.31,0,0,0-.65,2.89,120.78,120.78,0,0,1-15.58,48.46c-16.81,29.52-41.52,50.59-71.49,65.73-42.78,21.6-88.2,27.66-135.49,22.33a9.26,9.26,0,0,0-5.73,1.58c-18.18,12.34-36.17,25-54.41,37.23-7.23,4.86-14.89,9.12-22.56,13.27a7.06,7.06,0,0,1-6.17-.21c-1.09-.75-1.27-3.87-.8-5.66,3.78-14.35,7.77-28.65,11.77-42.94,2.28-8.12,4.7-16.21,7.06-24.35-1.44-.77-2.52-1.37-3.62-1.94-19.38-10-36.72-22.73-51.34-39C16.49,216.35,4.24,192.67.92,165-3.3,129.72,7.09,98.53,29,71.07,52.23,42,82.72,23.33,117.73,11.79,153.58,0,190.28-2.77,227.6,2.69c36.48,5.34,70,18.14,99.31,40.81,25.47,19.68,44.28,44.22,52.85,75.72C381.68,126.27,382.62,133.59,384,140.78Zm-100-1.1-1-.63c0-7.23.06-14.45,0-21.68s-4.71-12-11.19-11.85c-6.32.1-10.82,4.94-10.83,11.84q0,36.72,0,73.44c0,6.9,4.47,11.8,10.76,12S282.91,198,283,191c.1-6.37.22-12.74,0-19.1a7.56,7.56,0,0,1,4.23-7.68c1.51,1.72,3.15,3.28,4.45,5.09,4.37,6.08,8.44,12.38,13,18.34,3.31,4.35,6.72,8.78,10.83,12.31,6.17,5.31,14.56,2.27,16.92-5.47,1.23-4.06-.09-7.38-2.44-10.47-8.22-10.85-16.44-21.69-24.79-32.44-1.52-2-1.63-3.39.15-5.08,3.34-3.19,6.62-6.44,9.94-9.65,4.3-4.16,8.93-8,12.85-12.52,4.26-4.9,3.92-9.54-.06-13.72-4.24-4.45-8.67-4.86-14-1a52.75,52.75,0,0,0-6.92,6.28c-4.3,4.53-8.33,9.3-12.66,13.8C291.09,133.16,287.47,136.36,284,139.68ZM108.31,193c.32,5.18,2.45,8.16,6.92,9.23,6.71,1.62,11.73,0,13.92-4.82a108.71,108.71,0,0,0,4-10.88c.73-2.18,1.9-3.06,4.34-3q13.86.22,27.74,0c2.36,0,3.68.68,4.4,3,1.14,3.56,2.31,7.13,3.78,10.56,2.22,5.2,8,7.09,14.81,5.1,4.41-1.29,6.5-4.76,5.47-10.43A77.84,77.84,0,0,0,190,178.05c-7.59-19.93-15.48-39.74-23.08-59.66-3-7.88-8.46-12.75-15.28-12.86-6.64-.11-12.48,4.41-15.44,12.11q-12.74,33.2-25.35,66.42C109.7,187,109.13,190,108.31,193ZM74.85,127.09v4.57c0,19.73-.13,39.47.15,59.2a15,15,0,0,0,3.16,8.74c3,3.67,7.56,4.25,12,2.4s6.73-5.32,6.72-10.25q0-30,0-60v-4.48c1.47-.09,2.45-.2,3.44-.21,4.74,0,9.5.18,14.23-.1a11,11,0,0,0,10.56-11A10.77,10.77,0,0,0,114,105.54q-28.29-.11-56.58,0a10.51,10.51,0,0,0-10.21,7.36c-2.35,7.18,2.78,13.93,10.9,14.15C63.51,127.21,68.87,127.09,74.85,127.09Zm147.7,54.1v-4.93c0-19.62,0-39.24,0-58.86,0-7.15-5-12.05-11.67-11.88s-11,5.41-10.92,12.56c.08,17-.13,34-.13,51,0,7.61-.19,15.25.48,22.81.6,6.85,3.9,9.42,10.67,9.47q17.06.13,34.11,0c6.91-.06,11.54-4.31,11.5-10.2s-4.65-9.87-11.68-9.91C237.64,181.16,230.41,181.19,222.55,181.19Z" fill="currentColor"></path><path d="M151.82,134.16c3.46,9.78,6.93,19.56,10.52,29.69H140.46c3.55-10,7-19.86,10.5-29.68Z"></path></svg>