<svg xmlns="http://www.w3.org/2000/svg" width="814" height="165" viewBox="0 0 814 165">
  <g id="Group_105" data-name="Group 105" transform="translate(-313 -2668)">
    <g id="Group_102" data-name="Group 102" transform="translate(-0.5 597.586)">
      <g id="Group_22" data-name="Group 22" transform="translate(380.286 2087.414)">
        <path id="Path_110" data-name="Path 110" d="M947.926,561.632c0-36.518,28.037-62.651,65.765-62.651,20.941,0,38.422,7.615,49.844,21.461l-18,16.614c-8.134-9.347-18.346-14.191-30.459-14.191-22.673,0-38.768,15.922-38.768,38.767Z" transform="translate(-339.481 -498.981)" fill="none" stroke="#2779f5" stroke-miterlimit="10" stroke-width="1"/>
        <path id="Path_111" data-name="Path 111" d="M817.5,621.38l54-121.148,25.291-.052-50.56,121.2Z" transform="translate(-362.163 -498.772)" fill="none" stroke="#2779f5" stroke-miterlimit="10" stroke-width="1"/>
        <path id="Path_112" data-name="Path 112" d="M457.575,617.382h-27.96V570.426h28.037Z" transform="translate(-429.615 -486.557)" fill="none" stroke="#2779f5" stroke-miterlimit="10" stroke-width="1"/>
        <path id="Path_113" data-name="Path 113" d="M751.866,611.382h-27.96V564.426h28.037Z" transform="translate(-378.438 -487.6)" fill="none" stroke="#2779f5" stroke-miterlimit="10" stroke-width="1"/>
        <path id="Path_114" data-name="Path 114" d="M493.788,522.391V500.225h52.877v22.227Z" transform="translate(-418.456 -498.765)" fill="none" stroke="#2779f5" stroke-miterlimit="10" stroke-width="1"/>
        <path id="Path_115" data-name="Path 115" d="M540.722,607.477V585.312H596.33v22.227Z" transform="translate(-410.294 -483.968)" fill="none" stroke="#2779f5" stroke-miterlimit="10" stroke-width="1"/>
        <path id="Path_116" data-name="Path 116" d="M673.175,502.271H647.832l11.324,27.518,19.211,46.382H639.946l-9,21.287h56.247l28.481-.141Z" transform="translate(-394.604 -498.409)" fill="none" stroke="#2779f5" stroke-miterlimit="10" stroke-width="1"/>
        <rect id="Rectangle_84" data-name="Rectangle 84" width="30" height="61" transform="translate(-41.786 3.586)" fill="none"/>
      </g>
    </g>
    <rect id="Rectangle_85" data-name="Rectangle 85" width="814" height="165" transform="translate(313 2668)" fill="none"/>
  </g>
</svg>
